<?xml version="1.0" standalone="no"?><!DOCTYPE svg PUBLIC "-//W3C//DTD SVG 1.1//EN" "http://www.w3.org/Graphics/SVG/1.1/DTD/svg11.dtd"><svg t="1765873399218" class="icon" viewBox="0 0 1024 1024" version="1.1" xmlns="http://www.w3.org/2000/svg" p-id="9078" xmlns:xlink="http://www.w3.org/1999/xlink" width="200" height="200"><path d="M484.906667 636.032v17.92l-18.346667 2.56v-18.346667c0-5.333333 4.650667-10.24 10.112-10.496 4.736-0.213333 8.234667 3.584 8.234667 8.362667zM407.893333 637.397333a12.458667 12.458667 0 0 1 14.677334 12.586667v18.346667a17.493333 17.493333 0 0 1-14.634667 16.725333l-11.008 1.536v-47.658667l11.008-1.536zM340.053333 646.912c7.082667-0.981333 12.842667 3.968 12.842667 11.050667v21.973333c0 7.082667-5.76 13.653333-12.8 14.634667a10.922667 10.922667 0 0 1-12.885333-11.008v-22.016c0-7.082667 5.76-13.653333 12.842666-14.634667z" fill="#000000" p-id="9079"></path><path d="M256 127.36a128 128 0 0 0-128 128v512a128 128 0 0 0 128 128h512a128 128 0 0 0 128-128v-512a128 128 0 0 0-128-128H256z m307.754667 513.450667v-93.696l36.352-15.146667c3.413333-1.408 6.613333-3.328 9.514666-5.546667v116.949334a32.725333 32.725333 0 0 1-27.52 31.402666l-1.834666 0.256v0.128l-29.312 4.096a15.573333 15.573333 0 0 1-18.346667-15.744v-18.346666l31.146667-4.394667z m0-311.893334l45.866666-6.442666v40.490666l18.346667-2.56v36.650667l-18.346667 2.56v71.936l18.346667-7.68v14.293333c0 16.469333-11.008 32.512-26.922667 39.125334l-79.445333 33.066666v-14.250666c0-16.469333 11.008-32.512 26.922667-39.125334l15.274666-6.357333V406.058667l-31.189333 4.394666v-36.693333l31.146667-4.352v-40.490667z m-64.170667 350.506667a8.746667 8.746667 0 0 1-7.338667 8.362667 6.229333 6.229333 0 0 1-7.338666-6.314667v-12.8l-18.346667 2.56v12.8a8.746667 8.746667 0 0 1-7.296 8.362667 6.229333 6.229333 0 0 1-7.338667-6.272v-45.184c0-12.8 9.813333-25.216 22.613334-27.648 13.696-2.602667 25.045333 6.741333 25.045333 20.266666v45.866667z m-62.336-13.141333c0 16.213333-13.141333 31.146667-29.354667 33.450666l-18.346666 2.56a6.229333 6.229333 0 0 1-7.296-6.314666v-62.293334c0-4.096 3.242667-7.850667 7.296-8.405333l18.346666-2.56a24.917333 24.917333 0 0 1 29.354667 25.173333v18.346667z m-69.674667 11.605333c0 15.189333-12.373333 29.226667-27.52 31.36a23.381333 23.381333 0 0 1-27.477333-23.637333v-21.973334c0-15.189333 12.330667-29.269333 27.477333-31.402666a23.381333 23.381333 0 0 1 27.52 23.637333v22.016z m-105.429333-3.626667l12.8-1.834666a19.584 19.584 0 0 1 22.826667 21.930666 27.946667 27.946667 0 0 1-23.466667 24.021334l-27.733333 3.882666a6.229333 6.229333 0 0 1-7.381334-6.272c0-4.053333 3.285333-7.808 7.338667-8.405333l28.074667-3.925333c4.266667-0.597333 8.149333-4.266667 8.576-8.618667a7.04 7.04 0 0 0-8.192-7.936l-12.202667 1.706667c-11.946667 1.706667-22.357333-5.674667-23.466667-17.408a27.136 27.136 0 0 1 22.826667-28.330667l24.746667-3.498667a6.229333 6.229333 0 0 1 7.338666 6.314667 8.746667 8.746667 0 0 1-7.338666 8.362667l-24.405334 3.413333c-4.266667 0.64-8.149333 4.309333-8.533333 8.661333a7.04 7.04 0 0 0 8.192 7.936z m384.170667-334.805333l143.018666-20.096v36.693333l-36.693333 5.12v262.101334a32.725333 32.725333 0 0 1-27.52 31.402666l-1.834667 0.256v0.085334l-34.816 4.906666a15.573333 15.573333 0 0 1-18.346666-15.786666v-18.304l36.693333-5.12V367.573333l-60.501333 8.533334v-36.693334z m-182.442667 135.68l5.12-0.725333a23.296 23.296 0 0 1 27.392 22.186666l3.2 57.856-8.832 1.28a23.381333 23.381333 0 0 1-27.52-23.978666l0.64-56.618667z m-111.786667-20.992l70.485334-9.898667a23.338667 23.338667 0 0 1 27.52 23.637334v102.698666a32.725333 32.725333 0 0 1-27.52 31.36l-36.693334 5.162667a15.573333 15.573333 0 0 1-18.304-15.786667v-18.346666l36.693334-5.12v-84.352l-54.826667 7.68 2.688-37.034667z m-12.032-5.504l-11.050666 150.101333a32.853333 32.853333 0 0 1-27.434667 29.397334l-20.138667 2.816 9.6-131.541334-42.666666 5.973334v-36.693334l52.906666-7.381333a31.914667 31.914667 0 0 1 18.56-9.813333l20.224-2.858667z m0-11.136l-18.346666 2.56a23.296 23.296 0 0 1-25.898667-14.72l-56.618667 8.021333v-36.693333l55.04-7.808V366.933333l45.824-6.442666v21.888l54.698667-7.722667v-21.845333l45.866667-6.442667v21.76l55.296-7.808v36.693333l-56.832 8.021334a32.981333 32.981333 0 0 1-25.984 22.186666l-18.346667 2.56V411.306667l-54.698667 7.765333v18.432z m-99.242666 119.978667a44.373333 44.373333 0 0 1 36.864-37.845334l-3.626667 47.957334a47.146667 47.146667 0 0 1-39.381333 42.026666l6.144-52.138666z" fill="#000000" p-id="9080"></path></svg>